<svg width="31" height="32" viewBox="0 0 31 32" fill="none" xmlns="http://www.w3.org/2000/svg">
<g clip-path="url(#clip0_356_5323)">
<path d="M16.2253 13.7413L17.7067 11.1586L22.7387 10.836L22.9147 10.5213L18.264 10.1986L19.3573 8.3133H27.984C30.6373 8.3133 32.5973 9.26663 31.8333 12.0466C31.6067 12.8973 30.528 15.024 27.3587 15.912C28.0347 15.992 29.7053 16.7333 29.412 18.6546C28.9 22.0653 24.492 23.6866 22.0347 23.6866L11.8467 23.6946L11.34 21.7213L16.68 21.348L16.8627 21.032L11.068 20.68L10.4453 18.34L18.6827 17.856L18.8653 17.548L4.07067 16.624L4.78267 15.3906L20.7133 14.3573L20.8973 14.0493L16.2253 13.7413ZM22.892 14.2546L24.3587 14.2466C25.3427 14.24 26.3613 13.7933 26.736 12.8893C27.0813 12.0466 26.6187 11.328 26.0027 11.3346H24.58L22.892 14.2546ZM21.1987 17.1813L19.4307 20.2546H21.1173C21.9027 20.2546 23.304 19.8653 23.736 18.7506C24.1387 17.7093 23.3987 17.1813 22.8853 17.1813H21.1987ZM8.34667 21.9266L7.32 23.68L0 23.6933L0.712 22.4626L8.34667 21.9266ZM8.86 8.3053L14.7493 8.3133L15.1973 9.9773L8.16267 9.5373L8.86 8.3053ZM15.5267 11.2986L16.172 13.7413L6.116 13.0813L6.82 11.8546L15.5267 11.2986ZM10.4067 18.34L9.13067 20.5546L2.03733 20.152L2.74933 18.92L10.4067 18.34Z" fill="black"/>
</g>
<defs>
<clipPath id="clip0_356_5323">
<rect width="32" height="32" fill="white"/>
</clipPath>
</defs>
</svg>
