<svg width="32" height="12" viewBox="0 0 32 12" fill="none" xmlns="http://www.w3.org/2000/svg">
<path d="M32.0003 0.400024L8.58961 10.368C6.64828 11.1902 5.01806 11.6014 3.69895 11.6014C2.20562 11.6014 1.1225 11.0782 0.449615 10.032C0.0273931 9.36002 -0.0970513 8.50758 0.076282 7.47469C0.250504 6.4418 0.710949 5.34047 1.45762 4.17069C2.07984 3.22402 3.10073 1.97958 4.52028 0.437358C4.03816 1.19533 3.68493 2.02793 3.47495 2.90136C3.10161 4.49425 3.43762 5.66402 4.48295 6.41069C4.98073 6.75913 5.66517 6.93336 6.53628 6.93336C7.23228 6.93336 8.01628 6.82136 8.88828 6.59736L32.0003 0.400024Z" fill="black"/>
</svg>
