<svg width="32" height="26" viewBox="0 0 32 26" fill="none" xmlns="http://www.w3.org/2000/svg">
<path d="M31.7935 1.0106C31.2375 0.299929 30.2655 0.869263 29.8375 1.11726C26.7922 2.91193 26.3429 6.07193 25.2815 7.8866C24.4469 9.33993 23.0789 10.4066 21.8415 10.4893C20.9269 10.5546 19.9349 10.3773 18.9509 9.94926C16.5415 8.90793 15.2442 7.55993 14.9282 7.3226C14.2789 6.82926 9.28819 1.96926 5.22152 1.7706C5.22152 1.7706 4.72552 0.770596 4.60152 0.753263C4.30552 0.719929 4.00152 1.3546 3.78019 1.42126C3.58019 1.49193 3.22952 0.738596 3.02685 0.771929C2.82285 0.798596 2.62419 1.55326 2.22685 1.94126C1.93352 2.22526 1.57885 2.20793 1.37752 2.5586C1.30819 2.6866 1.33219 2.91193 1.25352 3.1186C1.08419 3.54526 0.518854 3.5906 0.513521 4.04793C0.513521 4.55593 0.989521 4.65326 1.40552 5.00793C1.73619 5.2906 1.75885 5.4906 2.14419 5.6226C2.48819 5.73993 2.98685 5.37326 3.42952 5.50526C3.79885 5.61326 4.15352 5.69193 4.23219 6.06926C4.30419 6.4106 4.23219 6.9466 3.77885 6.8866C3.62952 6.8666 2.98152 6.6546 2.18152 6.73993C1.21485 6.8426 0.110854 7.15193 0.00285447 8.21993C-0.0518122 8.81593 0.688188 9.51326 1.40952 9.3746C1.90419 9.27993 1.67085 8.69993 1.94152 8.41993C2.29752 8.05993 4.30419 9.6786 6.17085 9.6786C6.96152 9.6786 7.54552 9.4786 8.12685 8.87193C8.18019 8.83326 8.25085 8.73593 8.33352 8.72526C8.42652 8.74848 8.51458 8.78822 8.59352 8.8426C10.1015 10.0386 11.2389 12.4426 16.7669 12.4706C17.5429 12.4799 18.4335 12.8426 19.1615 13.5066C19.8015 14.0839 20.1802 15.0066 20.5442 15.9399C21.1015 17.3439 22.0922 18.6986 23.6002 20.2106C23.6802 20.3013 24.9202 21.2506 25.0135 21.3213C25.0295 21.3346 25.1255 21.5439 25.0842 21.6613C25.0575 22.5813 24.9202 25.2213 26.9042 25.3319C27.3922 25.3586 27.2709 25.0239 27.2709 24.7853C27.2642 24.3306 27.1842 23.8719 27.4215 23.3986C27.7589 22.7613 26.7202 22.4533 26.7429 21.0573C26.7682 20.0119 25.8829 20.1893 25.4309 19.3906C25.1775 18.9333 24.9402 18.6813 24.9642 18.1293C25.0615 14.9559 24.2749 12.8653 23.8909 12.3599C23.5882 11.9679 23.3269 11.8226 23.6149 11.6399C25.2682 10.5533 25.6482 9.54126 25.6482 9.54126C26.5282 7.4866 27.3229 5.6146 28.4149 4.78126C28.6362 4.62126 29.2002 4.1946 29.5509 4.0346C30.5682 3.55193 31.1149 3.26393 31.4015 2.98393C31.8762 2.5346 32.2482 1.57993 31.7935 1.0106Z" fill="black"/>
</svg>
