<svg width="61" height="26" viewBox="0 0 61 26" fill="none" xmlns="http://www.w3.org/2000/svg">
<path d="M57.6369 24.872L48.7474 0.397376L48.7413 0.381226H48.5659L46.7353 5.41069L43.4028 14.5669L43.395 14.5596C42.2399 13.5405 40.6104 12.9034 38.5582 12.6661L37.9322 12.6015L38.5532 12.5219C41.9375 11.9138 44.2125 9.77633 44.2125 7.20117C44.2125 3.66979 40.8911 1.2049 36.1334 1.2049H26.2343V1.38367H29.1107V19.6309L22.1248 0.397376L22.1187 0.381226H21.9433L20.1127 5.41069L13.0522 24.809L13.0087 24.8141C12.8881 24.8289 12.7687 24.8408 12.6506 24.8497C12.473 24.8636 12.2964 24.872 12.1194 24.872H4.98531L18.5461 1.38367L18.6469 1.20712H2.06152V8.47315H2.23751C2.2687 4.93398 4.32983 1.38367 8.88369 1.38367H14.3776L0.714355 25.048H19.1214V18.0866H18.9454C18.9215 21.1713 17.1728 24.1012 13.3702 24.7628L13.2493 24.7834L16.1453 16.8235H24.2578L27.181 24.872H24.2973V25.048H35.6155V24.872H32.7195V12.7313H36.061C39.4615 12.7313 41.4118 14.2506 41.4118 16.8981V19.0517C41.4118 19.2889 41.4279 19.6359 41.4458 19.926V19.9366L39.6497 24.8709H37.3035V25.0468H42.1603V24.8709H39.8391L41.4747 20.3777C41.4781 20.4211 41.4797 20.4473 41.4797 20.4473L41.5248 20.8522L41.5683 21.1201C41.8412 22.7769 42.4749 23.9948 43.4512 24.74L43.5915 24.8419C44.3334 25.3576 45.255 25.6188 46.3327 25.6188C47.76 25.6188 48.7118 25.2629 49.4976 24.4253L49.3946 24.3284C48.6706 24.9967 48.063 25.2674 47.3017 25.2674C46.0046 25.2674 45.3258 23.6941 45.3258 22.1426V19.1252C45.3327 18.3765 45.2154 17.6318 44.9788 16.9215L44.9465 16.8279V16.8246H50.8804L53.8036 24.8731H50.9199V25.0491H60.7144V24.8731L57.6369 24.872ZM16.2099 16.6475L20.2063 5.66799L24.1938 16.6475H16.2099ZM32.7212 12.5548V1.38367H35.2718C38.679 1.38367 40.4779 3.40915 40.4779 7.23904C40.4779 11.3123 39.4453 12.5548 36.061 12.5548H32.7212ZM44.8775 16.6475L44.8602 16.6041C44.5965 15.9618 44.2126 15.3759 43.7291 14.8776L43.562 14.7106L43.5442 14.6939L46.8266 5.66799L50.8141 16.6475H44.8775Z" fill="black"/>
</svg>
